<svg width="16" height="16" viewBox="0 0 16 16" fill="none" xmlns="http://www.w3.org/2000/svg">
<path d="M15.6802 8.17683C15.6897 7.62666 15.6328 7.07648 15.5126 6.54211H7.99988V9.51116H12.4108C12.2432 10.5641 11.6519 11.5 10.7761 12.1071L10.7602 12.2051L13.1349 14.0454L13.2993 14.0612C14.8075 12.6668 15.6802 10.6147 15.6802 8.17683Z" fill="#4285F4"/>
<path d="M7.99984 15.9999C10.1594 15.9999 11.9744 15.2884 13.2992 14.0616L10.776 12.1044C9.95707 12.6546 8.98636 12.9328 8.003 12.9044C5.92878 12.8917 4.09486 11.551 3.44982 9.578L3.35497 9.58749L0.885501 11.4973L0.853882 11.5858C2.20719 14.2956 4.97387 16.003 7.99984 15.9999Z" fill="#34A853"/>
<path d="M3.4465 9.58116C3.2726 9.07209 3.1809 8.53772 3.1809 7.99703C3.18406 7.45951 3.2726 6.92514 3.44018 6.41291L3.43702 6.30856L0.93593 4.36714L0.853721 4.40508C-0.284574 6.66586 -0.284574 9.32821 0.853721 11.589L3.4465 9.58116Z" fill="#FBBC05"/>
<path d="M7.99994 3.09285C9.14772 3.07387 10.2544 3.50074 11.0923 4.28489L13.3499 2.08103C11.9018 0.7214 9.98247 -0.0216529 7.99678 0.00048062C4.97081 0.00048062 2.20412 1.70476 0.847656 4.41137L3.43411 6.41919C4.08547 4.44615 5.92255 3.10549 7.99994 3.09285Z" fill="#EB4335"/>
</svg>
